<svg version="1.1" viewBox="0 0 100 100" xmlns="http://www.w3.org/2000/svg">
	<rect width="100" height="100" rx="20" ry="20" fill="#ff2121" fill-rule="evenodd"/>
	<g fill="#f5f5f5">
		<path d="m11.895 25.091v17.75c0 1.4952 2.0438 2.5183 2.0438 4.0135v38.192c0 2.0068 6.1305 2.0068 6.1305 0v-38.192c0-1.4952 2.043-2.5183 2.043-4.0135v-17.75c0-.47297-.79563-1.2544-1.2773-1.2544s-1.2773.78146-1.2773 1.2544v12.794c0 .66892-1.2773.66892-1.2773 0v-12.794c0-.47297-.79484-1.2544-1.2773-1.2544-.48162 0-1.2765.78146-1.2765 1.2544v12.794c0 .66892-1.2773.66892-1.2773 0v-12.794c0-.47297-.79563-1.2544-1.2773-1.2544s-1.2773.78146-1.2773 1.2544zm19.507-3.9348c-2.9299 0-7.104-3.1439-7.1512-6.0203-.01967-1.2064.8153-2.0068 2.043-2.0068h60.278c2.0438 0 2.0438 6.0203 0 6.0203h-34.737c-1.0766 0 .05509 2.0068-1.0215 2.0068z"/>
		<ellipse cx="55.871" cy="56.905" rx="31.933" ry="31.364"/>
		<ellipse cx="55.871" cy="56.905" rx="20.828" ry="20.457" stroke="#737373" stroke-linecap="round" stroke-width=".4"/>
	</g>
</svg>
