<?xml version="1.0" standalone="no"?>
<!DOCTYPE svg PUBLIC "-//W3C//DTD SVG 20010904//EN"
 "http://www.w3.org/TR/2001/REC-SVG-20010904/DTD/svg10.dtd">
<svg version="1.0" xmlns="http://www.w3.org/2000/svg"
 width="700.000000pt" height="700.000000pt" viewBox="0 0 700.000000 700.000000"
 preserveAspectRatio="xMidYMid meet">
<metadata>
Created by potrace 1.11, written by Peter Selinger 2001-2013
</metadata>
<g transform="translate(0.000000,700.000000) scale(0.100000,-0.100000)"
fill="#000000" stroke="none">
<path d="M1288 6802 c-168 -85 -143 -320 55 -515 99 -97 202 -162 338 -213
l74 -27 910 -2 c501 -1 920 1 932 3 34 6 53 45 55 112 l2 60 36 1 c19 0 721 1
1560 1 1354 1 1529 2 1557 16 153 73 152 503 0 576 -28 13 -353 15 -2749 15
l-2717 0 -53 -27z"/>
<path d="M185 5861 c-48 -22 -89 -65 -102 -106 -5 -18 -9 -357 -8 -840 1 -927
-10 -819 103 -970 33 -44 64 -96 70 -115 7 -24 10 -578 10 -1753 l-1 -1718 30
-37 c19 -24 51 -46 89 -62 52 -21 74 -24 189 -24 116 -1 136 2 189 24 37 16
70 38 89 61 l29 37 0 1728 c0 1222 3 1735 11 1753 6 14 40 67 77 116 36 50 72
106 80 125 12 29 14 167 14 850 0 896 4 842 -61 901 -58 54 -121 53 -181 -4
-57 -53 -55 -34 -55 -659 0 -488 -3 -578 -15 -583 -7 -3 -17 -3 -21 -1 -4 3
-7 263 -6 578 0 345 -3 583 -9 598 -15 39 -57 81 -101 101 -35 16 -42 16 -75
3 -51 -22 -99 -72 -107 -113 -3 -20 -7 -290 -7 -601 -1 -558 -1 -565 -21 -565
-20 0 -20 7 -21 581 -1 500 -4 584 -17 610 -20 39 -55 70 -98 88 -32 13 -39
13 -74 -3z"/>
<path d="M3937 5724 c-1 -1 -47 -4 -102 -8 -154 -9 -334 -34 -445 -61 -200
-49 -300 -80 -444 -137 -243 -96 -483 -233 -694 -395 -119 -92 -261 -219 -341
-308 -20 -21 -43 -47 -52 -56 -115 -118 -309 -403 -405 -595 -115 -229 -171
-378 -229 -614 -23 -94 -27 -113 -40 -200 -4 -25 -9 -56 -11 -70 -5 -35 -14
-107 -19 -160 -10 -101 -4 -425 9 -530 46 -362 129 -638 288 -955 164 -324
432 -660 708 -886 36 -30 67 -56 70 -59 14 -17 218 -155 305 -208 206 -123
435 -222 674 -292 41 -12 83 -23 93 -25 11 -2 27 -6 36 -9 9 -3 28 -7 42 -10
14 -3 50 -10 80 -16 332 -68 757 -72 1075 -10 28 5 62 11 76 14 14 2 87 20
162 40 878 231 1602 871 1930 1706 42 108 100 285 111 340 3 14 12 57 20 95
47 218 59 340 60 580 0 145 -5 245 -20 365 -11 98 -49 281 -80 386 -14 49 -27
96 -29 104 -3 15 -10 34 -60 165 -264 687 -837 1275 -1535 1573 -181 78 -449
159 -610 186 -120 20 -249 36 -345 42 -100 6 -274 11 -278 8z"/>
</g>
</svg>
